<?xml version="1.0" encoding="UTF-8" standalone="no"?>
<!-- Created with Inkscape (http://www.inkscape.org/) -->

<svg
   xmlns:dc="http://purl.org/dc/elements/1.1/"
   xmlns:cc="http://creativecommons.org/ns#"
   xmlns:rdf="http://www.w3.org/1999/02/22-rdf-syntax-ns#"
   xmlns:svg="http://www.w3.org/2000/svg"
   xmlns="http://www.w3.org/2000/svg"
   xmlns:sodipodi="http://sodipodi.sourceforge.net/DTD/sodipodi-0.dtd"
   xmlns:inkscape="http://www.inkscape.org/namespaces/inkscape"
   version="1.1"
   id="svg2"
   width="500"
   height="500"
   viewBox="0 0 500 500"
   sodipodi:docname="file-icon.svg"
   inkscape:version="0.92.2 (5c3e80d, 2017-08-06)">
  <metadata
     id="metadata8">
    <rdf:RDF>
      <cc:Work
         rdf:about="">
        <dc:format>image/svg+xml</dc:format>
        <dc:type
           rdf:resource="http://purl.org/dc/dcmitype/StillImage" />
        <dc:title></dc:title>
      </cc:Work>
    </rdf:RDF>
  </metadata>
  <defs
     id="defs6" />
  <sodipodi:namedview
     pagecolor="#ffffff"
     bordercolor="#666666"
     borderopacity="1"
     objecttolerance="10"
     gridtolerance="10"
     guidetolerance="10"
     inkscape:pageopacity="0"
     inkscape:pageshadow="2"
     inkscape:window-width="1718"
     inkscape:window-height="1368"
     id="namedview4"
     showgrid="false"
     inkscape:zoom="0.69140623"
     inkscape:cx="117.05278"
     inkscape:cy="309.05613"
     inkscape:window-x="-7"
     inkscape:window-y="0"
     inkscape:window-maximized="0"
     inkscape:current-layer="layer1" />
  <g
     inkscape:groupmode="layer"
     id="layer1"
     inkscape:label="svg"
     transform="translate(0,-182.66669)">
    <path
       style="display:inline;fill:#000000;stroke-width:1.02074158"
       d="M 96.08817,681.03654 C 83.84474,676.78632 75.20067,669.07755 69.73016,657.5305 L 66.5,650.71234 V 432.73107 214.74979 l 3.80309,-7.69503 c 4.64964,-9.40789 11.43965,-16.07294 20.97712,-20.59104 l 6.86278,-3.25104 111.23291,-0.273 111.2329,-0.273 57.45609,57.45608 57.45607,57.45608 -0.26661,176.56675 -0.26662,176.56675 -3.25104,6.86278 c -4.51797,9.53721 -11.18315,16.32745 -20.59073,20.97713 l -7.69473,3.80308 -151.12301,0.22878 c -141.31346,0.21393 -151.45515,0.11348 -156.24005,-1.54757 z M 403.66596,658.104 c 2.34008,-1.54866 5.52179,-4.73038 7.07044,-7.07048 l 2.81575,-4.25473 0.26722,-166.71078 0.2672,-166.71078 h -49.61891 c -43.07158,0 -50.0666,-0.21244 -53.01172,-1.60998 -6.64148,-3.15159 -6.61277,-2.89967 -6.61277,-58.02176 V 204.0993 l -101.38356,0.27448 -101.38356,0.27448 -4.25448,2.81575 c -2.33997,1.54867 -5.52158,4.73041 -7.07024,7.07054 l -2.81576,4.25479 -0.26475,211.73394 c -0.18529,148.19364 0.0635,212.95322 0.8293,215.79691 1.33911,4.97309 8.63518,12.57435 13.395,13.95531 2.12107,0.61537 58.52393,0.92066 150.45461,0.81434 l 147.06155,-0.17007 z M 146.98864,594.13637 c -4.39792,-2.68169 -6.07738,-7.85972 -4.09111,-12.61352 3.08232,-7.37705 -5.12465,-6.85576 107.9358,-6.85576 100.4268,0 101.74237,0.026 104.325,2.05745 3.90056,3.06816 5.26859,8.12649 3.40446,12.58799 -3.00691,7.19653 3.45538,6.79057 -108.02342,6.78632 -97.12431,-0.004 -100.44146,-0.0665 -103.55073,-1.96248 z m 0.98796,-86.44349 c -2.977,-1.46814 -6.45209,-6.62867 -6.45209,-9.58141 0,-0.67243 0.72449,-2.74935 1.60999,-4.61539 3.3036,-6.96182 -2.37654,-6.61277 107.60936,-6.61277 109.98591,0 104.30577,-0.34905 107.60938,6.61277 0.88549,1.86604 1.60998,3.94296 1.60998,4.61539 0,0.67243 -0.72449,2.74935 -1.60998,4.61539 -3.30471,6.96412 2.39998,6.61529 -107.76364,6.58952 -88.1445,-0.0206 -99.73457,-0.20399 -102.613,-1.6235 z m -1.6472,-88.19448 c -3.90056,-3.06816 -5.26859,-8.12649 -3.40446,-12.58798 3.00652,-7.19563 -3.43194,-6.79015 107.81892,-6.79015 111.25087,0 104.81241,-0.40548 107.81893,6.79015 1.86413,4.46149 0.4961,9.51982 -3.40446,12.58798 -2.58266,2.03153 -3.89797,2.05744 -104.41447,2.05744 -100.51649,0 -101.8318,-0.026 -104.41446,-2.05744 z M 397.73066,290.64018 c 0,-0.1434 -15.84701,-16.10276 -35.21558,-35.46521 l -35.21559,-35.20449 v 35.46522 35.46522 h 35.21559 c 19.36857,0 35.21558,-0.11734 35.21558,-0.26074 z"
       id="path3704"
       inkscape:connector-curvature="0" />
  </g>
</svg>
