<svg xmlns="http://www.w3.org/2000/svg" width="500" height="500" viewBox="0 0 132.292 132.292" id="svg961">
  <defs id="defs955">
    <style id="style2">
      .cls-1{fill:#5dbd71}
    </style>
  </defs>
  <g id="layer2" transform="translate(-48.609 26.177)">
    <g id="g852" transform="translate(-110.076 -260.941) scale(3.3782)">
      <path id="path1512-0" d="M69.476 102.117l14.547-4.246-.027-15.541s.186-5.102-4.777-6.138c-4.964-1.036-23.596 2.37-23.596 2.37" fill="#515151" stroke-width=".566" stroke-linejoin="round"/>
      <g transform="matrix(-1 0 0 1 133.518 0)" id="g833">
        <path d="M84.346 100.533l-20.177 1.613v-9.78c0-9.939 5.189-14.163 11.482-14.123 5.326.034 8.696 2.93 8.729 13.357z" id="rect1509" fill="#ddd" stroke-width=".437"/>
        <path d="M74.587 79.996l2.267-.1-.133 4.405-2.134.134z" id="rect827" fill="#b2b2b2" stroke-width=".3"/>
        <path id="rect833" fill="#cecece" stroke-width=".529" d="M75.604 80.679h2.372v2.105h-2.372z"/>
      </g>
      <path id="path1560" d="M72.363 75.816l5.22-1.205.095 2.369-4.267 1.008-.034 11.941c3.174.722-1.692 5.75-1.558 2.34z" fill="#5dbd71" stroke="#5dbd71" stroke-width=".529"/>
      <g id="g44" transform="translate(50.54 86.461) scale(.14462)" stroke-width=".336">
        <path id="path8" transform="translate(-125.21 -121.13)" d="M180.92 194.19s-17.61-25.11-3.7-50 42.61-24.73 52.07-21.7c9.46 3.03 5.75 19.2 5.72 23.24-.03 4.04.43 5.08.43 5.08s1 2.63 3.48 2.28a46.82 46.82 0 0 0 4.75-1s.21 16.66-11 28.42c-11.21 11.76-18.78 5.86-28.68 14.36-9.9 8.5-18.35 19.16-15.26 3.17 9.87-51.17 37.11-70.11 28.15-63.85-26.56 18.58-36 59.95-36 59.95z" class="cls-1" fill="#5dbd71"/>
        <path id="path10" transform="translate(-125.21 -121.13)" d="M157.11 162.49c-5.17-15.3-16.27-24.78-16.28-24.52-.1-.24 12.9 6.74 21.34 22.18.72 1.21 1.38 2.48 2 3.76a52.8 52.8 0 0 1 6.21-21.25 49.9 49.9 0 0 0-40.24-12.47 12 12 0 0 1 2.3 9.45c-1.15 5.3-15 21.68-1.15 38.29 9.51 11.41 22.17 21.51 29.17 26.71 1.29-10.35 2.11-27.83-3.38-42.16z" class="cls-1" fill="#5dbd71"/>
        <path id="path12" transform="translate(-125.21 -121.13)" d="M174.29 137.47s-7.75-6-16.88-7.77c6.85-4.1 19.17-6.84 22.37-5.92-.46 2.74.37 4.21 4.66 5.62a87.54 87.54 0 0 0-10.15 8.08z" class="cls-1" fill="#5dbd71"/>
        <path id="path14" transform="translate(-125.21 -121.13)" d="M160.49 209.51s-29.08-17.73-35.28-31.42c3.29 11.68 2.69 24.78 35.28 31.42z" class="cls-1" fill="#5dbd71"/>
        <path id="path16" transform="translate(-125.21 -121.13)" d="M200.31 206.35s8.67-9.09 12.32-9.54c3.65-.45 13.69-3 13.69-3s-5.48 11.6-26 12.55z" class="cls-1" fill="#5dbd71"/>
      </g>
    </g>
  </g>
</svg>
